Coordinates
version=1
nRows=24
nColumns=38
inDegrees=no

Units are S.I. units (second, meters, Newtons, ...)
If the header above contains a line with 'inDegrees', this indicates whether rotational values are in degrees (yes) or radians (no).

endheader
time	pelvis_tilt	pelvis_list	pelvis_rotation	pelvis_tx	pelvis_ty	pelvis_tz	hip_flexion_r	hip_adduction_r	hip_rotation_r	knee_angle_r	ankle_angle_r	subtalar_angle_r	mtp_angle_r	hip_flexion_l	hip_adduction_l	hip_rotation_l	knee_angle_l	ankle_angle_l	subtalar_angle_l	mtp_angle_l	lumbar_extension	lumbar_bending	lumbar_rotation	arm_flex_r	arm_add_r	arm_rot_r	elbow_flex_r	pro_sup_r	wrist_flex_r	wrist_dev_r	arm_flex_l	arm_add_l	arm_rot_l	elbow_flex_l	pro_sup_l	wrist_flex_l	wrist_dev_l
2.19	0.814132	1.46686	-2.39961	0.994449	-0.356472	0.904879	-0.222592	-0.172249	-0.266002	0.695106	0.128721	0	0	0.396747	-0.00704256	-0.368759	0.50743	0.137869	0	0	-0.169205	-0.157266	-0.064966	-0.249582	-0.2094	0.150513	0.683402	0.396782	0	0	-0.186673	-0.326548	0.11689	0.604455	1.35724	0	0
2.2	0.870916	1.46534	-2.44762	0.997731	-0.368492	0.905846	-0.190192	-0.188061	-0.261376	0.760516	0.0626822	0	0	0.390424	0.00473878	-0.362244	0.513168	0.142188	0	0	-0.162936	-0.163471	-0.0731757	-0.251604	-0.208775	0.161677	0.675945	0.390375	0	0	-0.189794	-0.330446	0.122274	0.605721	1.34984	0	0
2.21	0.940329	1.46429	-2.50868	1.00106	-0.380301	0.906641	-0.153799	-0.203927	-0.254107	0.825588	-0.00887155	0	0	0.382686	0.0186126	-0.355431	0.512354	0.147571	0	0	-0.155063	-0.169594	-0.0808405	-0.254341	-0.208854	0.172829	0.67008	0.384027	0	0	-0.192885	-0.334722	0.128453	0.609651	1.34278	0	0
2.22	1.01169	1.46162	-2.57144	1.00441	-0.392127	0.907487	-0.117728	-0.219968	-0.245459	0.887457	-0.0824825	0	0	0.371125	0.0356028	-0.346905	0.504744	0.152452	0	0	-0.146934	-0.176853	-0.0881242	-0.258289	-0.210306	0.188921	0.666474	0.368308	0	0	-0.196605	-0.344014	0.155092	0.620057	1.28286	0	0
2.23	1.06366	1.45786	-2.61578	1.00759	-0.403658	0.908517	-0.0826026	-0.234822	-0.235497	0.946878	-0.144581	0	0	0.356699	0.0522019	-0.337471	0.495396	0.156526	0	0	-0.141746	-0.183376	-0.0948248	-0.262397	-0.210096	0.19491	0.664848	0.365031	0	0	-0.19813	-0.348704	0.158611	0.625948	1.28579	0	0
2.24	1.0911	1.45253	-2.63668	1.01058	-0.414828	0.909951	-0.0494259	-0.249016	-0.224753	1.00262	-0.205812	0	0	0.33801	0.0690166	-0.325127	0.48245	0.1587	0	0	-0.140554	-0.18973	-0.101003	-0.265339	-0.210085	0.200651	0.664077	0.36293	0	0	-0.198046	-0.35418	0.16436	0.632614	1.28648	0	0
2.25	1.08673	1.44691	-2.62706	1.0133	-0.425623	0.911813	-0.0194682	-0.260376	-0.213194	1.05287	-0.262058	0	0	0.31587	0.0829398	-0.31245	0.469594	0.161084	0	0	-0.143984	-0.194307	-0.106223	-0.267016	-0.209921	0.203581	0.663924	0.362237	0	0	-0.195924	-0.359806	0.170325	0.639934	1.28581	0	0
2.26	1.05023	1.44342	-2.58581	1.01682	-0.436089	0.913955	0.00553459	-0.278515	-0.197983	1.09184	-0.29377	0	0	0.292712	0.0940102	-0.299934	0.459661	0.163265	0	0	-0.151129	-0.192608	-0.111029	-0.267435	-0.211444	0.204449	0.663829	0.362766	0	0	-0.191568	-0.363474	0.176264	0.647115	1.28489	0	0
2.27	1.00316	1.43811	-2.53499	1.0192	-0.446178	0.916423	0.0277623	-0.283782	-0.18465	1.13093	-0.301628	0	0	0.266052	0.101021	-0.290841	0.448274	0.16672	0	0	-0.161468	-0.192787	-0.115124	-0.266719	-0.210345	0.198877	0.663038	0.378733	0	0	-0.185675	-0.369172	0.184348	0.654075	1.28281	0	0
2.28	0.957969	1.43501	-2.48559	1.02147	-0.456109	0.918805	0.0514629	-0.285952	-0.173563	1.17094	-0.278109	0	0	0.241722	0.104328	-0.283816	0.439335	0.171843	0	0	-0.170272	-0.190593	-0.120162	-0.265483	-0.209932	0.19598	0.662189	0.384929	0	0	-0.179607	-0.373604	0.188014	0.658972	1.28608	0	0
2.29	0.910324	1.43257	-2.43334	1.0237	-0.465954	0.921275	0.0741745	-0.286231	-0.165132	1.20696	-0.239453	0	0	0.216641	0.10607	-0.277774	0.429002	0.177081	0	0	-0.178887	-0.186959	-0.126207	-0.263648	-0.209669	0.193173	0.660131	0.392265	0	0	-0.17344	-0.377326	0.190199	0.662785	1.28872	0	0
2.3	0.863585	1.43113	-2.38157	1.02599	-0.475625	0.923758	0.0963038	-0.284466	-0.158593	1.23606	-0.200311	0	0	0.191815	0.106455	-0.273291	0.417386	0.182363	0	0	-0.186392	-0.181993	-0.133205	-0.261549	-0.211226	0.197321	0.658955	0.381885	0	0	-0.167073	-0.380302	0.190836	0.665359	1.2929	0	0
2.31	0.817584	1.42993	-2.33025	1.0283	-0.485129	0.926284	0.117779	-0.281407	-0.152691	1.25807	-0.167988	0	0	0.166128	0.106764	-0.268653	0.402637	0.186163	0	0	-0.193572	-0.176282	-0.140115	-0.259356	-0.2096	0.189095	0.653619	0.406261	0	0	-0.159717	-0.38369	0.195483	0.667777	1.28558	0	0
2.32	0.771948	1.42881	-2.27897	1.03063	-0.49452	0.928789	0.138569	-0.277351	-0.147162	1.27399	-0.141668	0	0	0.13943	0.10728	-0.26259	0.38471	0.187843	0	0	-0.200388	-0.170011	-0.147931	-0.257173	-0.210868	0.192303	0.651588	0.395388	0	0	-0.152747	-0.383715	0.184476	0.667698	1.32787	0	0
2.33	0.730996	1.42892	-2.23172	1.03295	-0.503865	0.931067	0.159724	-0.272087	-0.142908	1.2844	-0.1183	0	0	0.114569	0.106986	-0.256146	0.366835	0.189477	0	0	-0.205165	-0.163103	-0.155549	-0.256075	-0.211068	0.192212	0.648739	0.397206	0	0	-0.145754	-0.385735	0.183371	0.670031	1.33522	0	0
2.34	0.692195	1.42919	-2.18648	1.03522	-0.513161	0.933215	0.179975	-0.266651	-0.140292	1.28943	-0.0953546	0	0	0.0896031	0.106846	-0.247566	0.34682	0.189879	0	0	-0.209353	-0.156106	-0.163252	-0.255506	-0.211177	0.192916	0.646295	0.400083	0	0	-0.139126	-0.387659	0.181233	0.673242	1.34171	0	0
2.35	0.653608	1.43015	-2.14206	1.03732	-0.522237	0.935192	0.200349	-0.260249	-0.138331	1.28972	-0.0726007	0	0	0.0664	0.105484	-0.239254	0.327895	0.190502	0	0	-0.212978	-0.148659	-0.170165	-0.255316	-0.211054	0.193058	0.64491	0.40231	0	0	-0.132452	-0.389754	0.178955	0.678076	1.34473	0	0
2.36	0.616194	1.43131	-2.09885	1.03933	-0.531238	0.937055	0.219822	-0.253918	-0.138045	1.28495	-0.0502421	0	0	0.0438363	0.103669	-0.23068	0.30883	0.190808	0	0	-0.21615	-0.141203	-0.176962	-0.255423	-0.21031	0.191941	0.643764	0.404872	0	0	-0.126203	-0.391833	0.175681	0.684111	1.34571	0	0
2.37	0.580311	1.43281	-2.05643	1.04135	-0.540114	0.938747	0.238367	-0.248052	-0.140106	1.27522	-0.02921	0	0	0.0226644	0.101344	-0.221388	0.290931	0.190648	0	0	-0.218783	-0.133624	-0.184344	-0.25565	-0.209169	0.190496	0.643029	0.408517	0	0	-0.120275	-0.394089	0.172025	0.691328	1.34413	0	0
2.38	0.54686	1.43459	-2.0155	1.04339	-0.548845	0.940244	0.256123	-0.243145	-0.144507	1.26111	-0.00987315	0	0	0.00305785	0.0987587	-0.211909	0.274458	0.190784	0	0	-0.220807	-0.12608	-0.19238	-0.255772	-0.207753	0.189666	0.642134	0.413291	0	0	-0.113976	-0.396856	0.170122	0.698809	1.3403	0	0
2.39	0.510985	1.43619	-1.97189	1.04537	-0.557512	0.941619	0.272199	-0.238252	-0.150461	1.24232	0.00826733	0	0	-0.016108	0.0955356	-0.201987	0.258868	0.191362	0	0	-0.222945	-0.118223	-0.200323	-0.255971	-0.206036	0.187745	0.641517	0.418419	0	0	-0.107034	-0.400017	0.169831	0.706218	1.33501	0	0
2.4	0.47392	1.43807	-1.92715	1.04724	-0.566126	0.942815	0.28741	-0.233123	-0.157319	1.2192	0.0244354	0	0	-0.0333677	0.091327	-0.194428	0.24612	0.193221	0	0	-0.224563	-0.110175	-0.207823	-0.256256	-0.203855	0.184561	0.641097	0.423782	0	0	-0.099817	-0.403589	0.170294	0.713776	1.32926	0	0
2.41	0.43624	1.43636	-1.88176	1.04917	-0.574801	0.944224	0.296772	-0.229882	-0.165667	1.19074	0.040028	0	0	-0.0587309	0.0898355	-0.177864	0.222636	0.188409	0	0	-0.22984	-0.10298	-0.215324	-0.256178	-0.200389	0.17468	0.640847	0.439593	0	0	-0.0926308	-0.407459	0.171367	0.723505	1.31791	0	0
2.42	0.400594	1.4361	-1.83854	1.05098	-0.583374	0.945257	0.306562	-0.226196	-0.174966	1.15844	0.0537392	0	0	-0.0784125	0.0863719	-0.166324	0.207627	0.187928	0	0	-0.233352	-0.095587	-0.222961	-0.255561	-0.198063	0.169436	0.641913	0.446562	0	0	-0.0858757	-0.411367	0.17151	0.733469	1.30873	0	0
